<?xml version="1.0" encoding="utf-8"?><svg viewBox="0 0 211 211" xmlns="http://www.w3.org/2000/svg" xmlns:xlink="http://www.w3.org/1999/xlink"><style>:root>svg{display:none}:root>svg:target{display:block}</style><svg fill="none" viewBox="0 0 160 19" id="logo" xmlns="http://www.w3.org/2000/svg"><path d="M10.005 1.227c1.813 0 3.225.523 4.235 1.567.89.92 1.335 2.067 1.335 3.44 0 1.593-.582 2.828-1.747 3.704 1.66 2.06 2.646 4.73 2.96 8.01H9.765c-.147-2.213-.451-3.802-.913-4.766-.462-.95-1.15-1.425-2.067-1.425v6.191H0V1.228h10.005zM6.784 7.89h.18c1.225 0 1.837-.522 1.837-1.567 0-.438-.11-.803-.331-1.095-.275-.373-.7-.56-1.275-.56h-.411V7.89zM20.994 0L34.68 3.868l.06.066L31.14 19c-8.804-2.462-13.387-3.773-13.748-3.934C19.57 5.694 20.773.672 20.994 0zm4.094 7.681l-.663 2.98h.06l2.56.713c.441-1.688.662-2.66.662-2.915l-2.62-.778zM45.78 1.227c1.178 0 2.184.154 3.02.46.743.27 1.346.654 1.807 1.151.401.43.696.935.883 1.512.154.482.231.997.231 1.545 0 .745-.137 1.395-.411 1.95-.328.643-.853 1.191-1.576 1.644.903.526 1.545 1.125 1.927 1.797.314.57.471 1.25.471 2.038 0 1.366-.424 2.458-1.274 3.276-.93.899-2.251 1.348-3.964 1.348H36.207V1.228h9.573zm-2.79 6.618h.161c1.358 0 2.037-.544 2.037-1.632 0-1.081-.595-1.622-1.786-1.622h-.412v3.254zm0 6.421h.201c1.438 0 2.158-.577 2.158-1.73 0-1.257-.63-1.886-1.887-1.886h-.472v3.616zM69.212 8.81c0 3.097-.706 5.416-2.117 6.958a7.491 7.491 0 01-2.67 1.884 7.35 7.35 0 01-5.78-.044 7.603 7.603 0 01-2.629-1.862c-.763-.833-1.304-1.867-1.626-3.101-.274-1.081-.411-2.47-.411-4.164V1.227h6.784v7.747c0 1.271.267 1.907.803 1.907.34 0 .568-.172.682-.515.12-.358.18-1.056.18-2.093V1.227h6.784V8.81zM70.677 1.227h7.396l2.268 3.08 2.158-3.08h7.356l-5.8 8.218 6.17 8.503H82.8l-2.419-3.32-2.348 3.32h-7.356l5.981-8.459-5.98-8.262zM103.061 7.352c-1.084-1.629-2.352-2.443-3.804-2.443-.796 0-1.194.329-1.194.986 0 .27.228.544.683.822.187.117.428.245.722.383l1.857.822c.368.168.692.325.973.471.716.387 1.264.79 1.646 1.206.716.781 1.074 1.822 1.074 3.123 0 3.667-2.456 5.5-7.366 5.5-1.325 0-2.54-.095-3.643-.285a15.135 15.135 0 01-3.362-.975l1.666-5.588c1.024 1.782 2.305 2.673 3.843 2.673.756 0 1.134-.314 1.134-.942 0-.424-.314-.807-.943-1.15a5.802 5.802 0 00-.451-.23l-1.616-.735a8.367 8.367 0 01-1.094-.646 5.082 5.082 0 01-.963-.899c-.63-.767-.944-1.724-.944-2.87 0-3.74 2.449-5.61 7.346-5.61 2.275 0 4.315.372 6.122 1.117l-1.686 5.27zM106.814 17.948V1.228h6.784v6.124h3.452V1.227h6.783v16.721h-6.783v-6.213h-3.452v6.213h-6.784zM129.353 0l13.688 3.868.06.066L139.498 19c-8.804-2.462-13.387-3.773-13.748-3.934C127.931 5.694 129.132.672 129.353 0zm4.094 7.681l-.662 2.98h.06l2.559.713c.441-1.688.662-2.66.662-2.915l-2.619-.778zM153.919 1.227c1.104 0 2.077.183 2.92.548a4.961 4.961 0 011.866 1.38 5.441 5.441 0 011.004 1.83c.194.614.291 1.246.291 1.896 0 1.563-.498 2.893-1.495 3.989-.99 1.095-2.191 1.643-3.603 1.643-1.151 0-2.315-.486-3.492-1.457v6.892h-6.784V1.228h9.293zm-2.509 7.254c.201.058.385.088.552.088 1.137 0 1.706-.636 1.706-1.907 0-1.213-.512-1.819-1.536-1.819h-.722v3.638z" fill="#fff"/></svg><svg fill="none" viewBox="0 0 100 11" id="logo-black" xmlns="http://www.w3.org/2000/svg"><path d="M6.253.71c1.133 0 2.016.303 2.647.908.556.533.834 1.196.834 1.992 0 .922-.364 1.636-1.091 2.144 1.037 1.192 1.653 2.738 1.85 4.637h-4.39C6.01 9.11 5.82 8.19 5.532 7.631c-.289-.55-.72-.824-1.292-.824v3.584H0V.711h6.253zM4.24 4.567h.113c.765 0 1.147-.302 1.147-.907a.97.97 0 00-.206-.634c-.172-.216-.437-.324-.797-.324H4.24v1.865zM13.12 0l8.556 2.24.038.037L19.462 11c-5.503-1.425-8.367-2.184-8.593-2.277C12.232 3.297 12.983.389 13.121 0zm2.56 4.447l-.414 1.725h.038l1.599.413c.276-.977.414-1.54.414-1.688l-1.637-.45zM28.613.71c.736 0 1.365.09 1.887.267.465.156.84.378 1.13.666.25.25.434.541.551.875.097.28.145.578.145.895 0 .431-.086.808-.258 1.13-.204.371-.533.688-.984.95.564.305.966.652 1.204 1.041.197.33.295.723.295 1.18 0 .79-.266 1.423-.797 1.897-.58.52-1.407.78-2.477.78h-6.68V.711h5.984zm-1.744 3.832h.1c.85 0 1.274-.315 1.274-.945 0-.626-.372-.939-1.117-.939h-.257v1.884zm0 3.718h.125c.9 0 1.349-.335 1.349-1.003 0-.727-.393-1.09-1.18-1.09h-.294V8.26zM43.258 5.1c0 1.794-.442 3.136-1.324 4.029a4.698 4.698 0 01-1.668 1.09 4.948 4.948 0 01-3.613-.025 4.765 4.765 0 01-1.643-1.078c-.477-.482-.815-1.08-1.016-1.795-.172-.626-.257-1.43-.257-2.411V.71h4.24v4.486c0 .735.167 1.103.501 1.103.214 0 .356-.1.427-.298.075-.207.113-.611.113-1.212V.71h4.24V5.1zM44.173.71h4.623l1.417 1.783L51.562.71h4.597l-3.625 4.758 3.857 4.923H51.75l-1.512-1.922-1.467 1.922h-4.598l3.738-4.897L44.173.71zM64.413 4.257c-.677-.943-1.47-1.415-2.377-1.415-.498 0-.747.19-.747.57 0 .157.143.316.427.477.117.067.268.141.452.222l1.16.476c.23.097.433.188.608.272.448.224.79.457 1.029.698.447.453.671 1.055.671 1.808 0 2.123-1.535 3.185-4.604 3.185-.827 0-1.586-.055-2.276-.165a10.05 10.05 0 01-2.102-.565l1.042-3.235c.64 1.032 1.44 1.548 2.402 1.548.472 0 .709-.182.709-.546 0-.245-.197-.467-.59-.666a3.723 3.723 0 00-.282-.133l-1.01-.425a5.347 5.347 0 01-.684-.375 3.096 3.096 0 01-.602-.52c-.393-.444-.59-.998-.59-1.662 0-2.165 1.531-3.248 4.592-3.248 1.421 0 2.697.216 3.826.647l-1.054 3.052zM66.759 10.391V.711h4.24v3.546h2.157V.71h4.24v9.681h-4.24V6.794h-2.157v3.597h-4.24zM80.846 0L89.4 2.24l.038.037L87.186 11c-5.502-1.425-8.366-2.184-8.592-2.277C79.957 3.297 80.708.389 80.846 0zm2.558 4.447l-.413 1.725h.037l1.6.413c.275-.977.413-1.54.413-1.688l-1.637-.45zM96.2.71c.69 0 1.297.106 1.824.318.465.186.853.452 1.167.799.276.304.485.658.627 1.06.121.355.182.72.182 1.097 0 .905-.311 1.675-.934 2.309a3.028 3.028 0 01-2.252.952c-.72 0-1.447-.282-2.183-.844v3.99h-4.24V.711H96.2zm-1.569 4.2c.126.034.24.05.345.05.711 0 1.066-.367 1.066-1.103 0-.702-.32-1.053-.96-1.053h-.45V4.91z" fill="#23272A"/></svg><svg fill="none" viewBox="0 0 211 211" id="preloader-logo" xmlns="http://www.w3.org/2000/svg"><path d="M125.742 0c22.786 0 40.527 6.59 53.223 19.773 11.183 11.614 16.774 26.086 16.774 43.416 0 20.096-7.315 35.674-21.945 46.736C194.646 135.919 207.048 169.611 211 211h-88.285c-1.849-27.931-5.675-47.98-11.477-60.147-5.801-11.984-14.461-17.976-25.98-17.976V211H0V0h125.742zM85.258 84.068h2.27c15.387 0 23.08-6.59 23.08-19.772 0-5.531-1.387-10.14-4.162-13.828-3.447-4.7-8.787-7.051-16.017-7.051h-5.171v40.651z" fill="#fff"/></svg><svg fill="none" viewBox="0 0 24 24" id="warning" xmlns="http://www.w3.org/2000/svg"><path d="M7.86 2h8.28L22 7.86v8.28L16.14 22H7.86L2 16.14V7.86L7.86 2zM12 8v4M12 16h.01" stroke="#23272A" stroke-width="2" stroke-linecap="round" stroke-linejoin="round"/></svg></svg>