<svg width="50" height="50" viewBox="0 0 50 50" fill="none" xmlns="http://www.w3.org/2000/svg">
<circle cx="25" cy="25" r="24" fill="#5B7EFB" stroke="#5B7EFB" stroke-width="2"/>
<path d="M14.3507 24.6399L18.9488 26.4088L20.7413 32.3589C20.8192 32.761 21.2868 32.8414 21.5985 32.6002L24.1703 30.4292C24.4041 30.1879 24.7938 30.1879 25.1055 30.4292L29.7036 33.8867C30.0154 34.1279 30.483 33.9671 30.5609 33.565L33.99 16.6796C34.0679 16.2775 33.6782 15.8755 33.2886 16.0363L14.3507 23.5946C13.8831 23.7554 13.8831 24.479 14.3507 24.6399ZM20.5075 25.5243L29.5477 19.8154C29.7036 19.735 29.8595 19.9763 29.7036 20.0567L22.2999 27.2129C22.0661 27.4541 21.8323 27.7757 21.8323 28.1778L21.5985 30.1075C21.5985 30.3488 21.2089 30.4292 21.1309 30.1075L20.1957 26.5696C19.9619 26.1676 20.1178 25.6851 20.5075 25.5243Z" fill="white"/>
</svg>
