<svg width="50" height="50" viewBox="0 0 50 50" fill="none" xmlns="http://www.w3.org/2000/svg">
<circle cx="25" cy="25" r="25" fill="#7289DA"/>
<g clip-path="url(#clip0)">
<path d="M33.5746 26.114C33.1543 25.5832 33.2745 25.347 33.5746 24.8725C33.58 24.8671 37.0499 20.0722 37.4074 18.4462L37.4096 18.4451C37.5873 17.8525 37.4096 17.417 36.5505 17.417H33.7078C32.9842 17.417 32.6505 17.7907 32.4718 18.2089C32.4718 18.2089 31.0244 21.6734 28.9769 23.9192C28.3161 24.5681 28.0106 24.7761 27.6498 24.7761C27.4722 24.7761 27.1959 24.5681 27.1959 23.9755V18.4451C27.1959 17.7344 26.9933 17.417 26.3942 17.417H21.9244C21.4705 17.417 21.2008 17.7485 21.2008 18.0572C21.2008 18.7311 22.2245 18.886 22.3307 20.7818V24.8952C22.3307 25.7966 22.1671 25.9623 21.8042 25.9623C20.8378 25.9623 18.4924 22.4837 17.1025 18.5025C16.8219 17.7301 16.5478 17.4181 15.8188 17.4181H12.975C12.1636 17.4181 12 17.7918 12 18.21C12 18.9488 12.9663 22.6224 16.4937 27.4757C18.8445 30.7886 22.1552 32.5837 25.1668 32.5837C26.9771 32.5837 27.1981 32.185 27.1981 31.4992C27.1981 28.3337 27.0345 28.0347 27.9413 28.0347C28.3616 28.0347 29.0853 28.2427 30.7752 29.8407C32.7068 31.7354 33.0243 32.5837 34.1054 32.5837H36.9481C37.7584 32.5837 38.169 32.185 37.9328 31.3985C37.3923 29.7442 33.7393 26.3415 33.5746 26.114Z" fill="white"/>
</g>
<defs>
<clipPath id="clip0">
<rect width="26" height="26" fill="white" transform="translate(12 12)"/>
</clipPath>
</defs>
</svg>
