<svg width="50" height="50" viewBox="0 0 50 50" fill="none" xmlns="http://www.w3.org/2000/svg">
<circle cx="25" cy="25" r="24" fill="#5B7EFB" stroke="#5B7EFB" stroke-width="2"/>
<path d="M34.8142 29.7671C34.8142 29.6849 34.7346 29.6849 34.7346 29.6027C34.4163 28.9452 33.7002 28.1233 32.7453 27.2192C32.2678 26.8082 32.0291 26.4795 31.8699 26.3151C31.6312 25.9863 31.6312 25.7397 31.7108 25.411C31.7904 25.1644 32.1087 24.7534 32.6657 24.0137C32.984 23.6027 33.1431 23.3562 33.3819 23.1096C34.5755 21.4658 35.1325 20.3973 34.9734 19.9041L34.8938 19.8219C34.8142 19.7397 34.7346 19.6575 34.5755 19.6575C34.4163 19.5753 34.1776 19.5753 33.9389 19.6575H30.915C30.8355 19.6575 30.8355 19.6575 30.6763 19.6575C30.5967 19.6575 30.5172 19.6575 30.5172 19.6575H30.4376H30.358L30.2784 19.7397C30.1989 19.8219 30.1989 19.8219 30.1989 19.9041C29.8806 20.8082 29.4827 21.5479 29.0848 22.3699C28.8461 22.7808 28.6074 23.1918 28.3686 23.5206C28.1299 23.8493 27.9707 24.0959 27.8116 24.2603C27.6524 24.4247 27.4933 24.5068 27.4137 24.6712C27.3341 24.7534 27.175 24.8356 27.175 24.7534C27.0954 24.7534 27.0158 24.7534 27.0158 24.6712C26.9363 24.589 26.8567 24.5068 26.7771 24.4247C26.6976 24.3425 26.6975 24.1781 26.618 24.0137C26.618 23.8493 26.618 23.6849 26.618 23.6027C26.618 23.5205 26.618 23.274 26.618 23.1096C26.618 22.863 26.618 22.6986 26.618 22.6164C26.618 22.3699 26.618 22.0411 26.618 21.7123C26.618 21.3836 26.618 21.137 26.618 20.9726C26.618 20.8082 26.618 20.5616 26.618 20.3973C26.618 20.1507 26.618 19.9863 26.618 19.9041C26.618 19.8219 26.5384 19.6575 26.5384 19.5753C26.4588 19.4931 26.3792 19.411 26.2997 19.3288C26.2201 19.2466 26.061 19.2466 25.9814 19.1644C25.5835 19.0822 25.1061 19 24.549 19C23.2758 19 22.4005 19.0822 22.0822 19.2466C21.923 19.3288 21.7639 19.411 21.6843 19.5753C21.5252 19.7397 21.5252 19.8219 21.6047 19.8219C22.0026 19.9041 22.3209 20.0685 22.4801 20.3151L22.5597 20.4795C22.6392 20.5616 22.6392 20.726 22.7188 20.9726C22.7984 21.2192 22.7984 21.4657 22.7984 21.7945C22.7984 22.2877 22.7984 22.7808 22.7984 23.1096C22.7984 23.5206 22.7188 23.7671 22.7188 24.0137C22.7188 24.2603 22.6392 24.4247 22.5597 24.5069C22.4801 24.6712 22.4801 24.7534 22.4005 24.7534C22.4005 24.7534 22.4005 24.8356 22.3209 24.8356C22.2413 24.8356 22.1618 24.9178 22.0026 24.9178C21.923 24.9178 21.7639 24.8356 21.6843 24.7534C21.5252 24.6712 21.366 24.5069 21.2864 24.3425C21.1273 24.1781 20.9681 23.9315 20.809 23.6027C20.6498 23.274 20.4111 22.9452 20.252 22.4521L20.0928 22.1233C20.0132 21.9589 19.8541 21.6301 19.6949 21.2192C19.5358 20.8082 19.3766 20.4795 19.2175 20.0685C19.1379 19.9041 19.0583 19.8219 18.9788 19.7397H18.8992C18.8992 19.7397 18.8196 19.6575 18.74 19.6575C18.6605 19.6575 18.5809 19.5753 18.5013 19.5753H15.6366C15.3183 19.5753 15.1592 19.6575 15.0796 19.7397L15 19.8219C15 19.8219 15 19.9041 15 19.9863C15 20.0685 15 20.1507 15.0796 20.3151C15.4775 21.3014 15.9549 22.2877 16.4324 23.274C16.9098 24.1781 17.3873 25 17.7056 25.5753C18.1034 26.1507 18.4217 26.726 18.8196 27.2192C19.2175 27.7123 19.4562 28.0411 19.5358 28.2055C19.6949 28.3699 19.7745 28.4521 19.8541 28.5342L20.0928 28.7808C20.252 28.9452 20.4907 29.1918 20.809 29.4384C21.1273 29.6849 21.5252 29.9315 21.923 30.1781C22.3209 30.4247 22.7984 30.5891 23.2758 30.7534C23.8329 30.9178 24.3103 31 24.7878 30.9178H25.9814C26.2201 30.9178 26.3793 30.8356 26.5384 30.6712L26.618 30.589C26.618 30.5068 26.6975 30.5069 26.6975 30.4247C26.6975 30.3425 26.6975 30.2603 26.6975 30.0959C26.6975 29.7671 26.6976 29.5206 26.7771 29.274C26.8567 29.0274 26.8567 28.863 26.9363 28.6986C27.0159 28.5343 27.0954 28.4521 27.175 28.3699C27.2546 28.2877 27.3342 28.2055 27.3342 28.2055H27.4137C27.5729 28.1233 27.8116 28.2055 27.9708 28.3699C28.2095 28.5342 28.4482 28.7808 28.6073 29.0274C28.7665 29.274 29.0052 29.5206 29.3235 29.8493C29.6418 30.1781 29.8806 30.4247 30.0397 30.5069L30.2784 30.6712C30.4376 30.7534 30.5967 30.8356 30.8355 30.9178C31.0742 31 31.2333 31 31.3925 31L34.0981 30.9178C34.3368 30.9178 34.5755 30.8356 34.7346 30.7534C34.8938 30.6712 34.9734 30.589 34.9734 30.4247C34.9734 30.3425 34.9734 30.1781 34.9734 30.0959C34.8142 29.9315 34.8142 29.8493 34.8142 29.7671Z" fill="white"/>
</svg>
