<svg width="160" height="19" viewBox="0 0 160 19" fill="none" xmlns="http://www.w3.org/2000/svg">
<path d="M10.005 1.22722C11.818 1.22722 13.2296 1.74952 14.2398 2.79412C15.1296 3.71453 15.5745 4.8614 15.5745 6.23472C15.5745 7.82718 14.9925 9.06171 13.8284 9.93829C15.4875 11.9983 16.4743 14.6682 16.7888 17.9481H9.76417C9.61699 15.7347 9.31259 14.1459 8.85098 13.1817C8.38936 12.232 7.70028 11.7572 6.78374 11.7572V17.9481H0V1.22722H10.005ZM6.78374 7.88927H6.96438C8.18866 7.88927 8.8008 7.36697 8.8008 6.32238C8.8008 5.88408 8.69042 5.51884 8.46964 5.22664C8.19535 4.85409 7.77053 4.66782 7.19518 4.66782H6.78374V7.88927Z" fill="white"/>
<path d="M20.9935 0L34.6814 3.86794L34.7416 3.93368L31.139 19C22.3348 16.5383 17.7521 15.227 17.3909 15.0663C19.5718 5.69416 20.7727 0.672049 20.9935 0ZM25.0878 7.68108L24.4255 10.6615H24.4857L27.0447 11.3737C27.4862 9.68627 27.707 8.71473 27.707 8.45905L25.0878 7.68108Z" fill="white"/>
<path d="M45.7802 1.22722C46.9577 1.22722 47.9645 1.38062 48.8008 1.68743C49.5434 1.95771 50.1455 2.34121 50.6071 2.83795C51.0085 3.26893 51.3029 3.77297 51.4902 4.35006C51.6441 4.83218 51.721 5.34717 51.721 5.89504C51.721 6.64014 51.5839 7.29027 51.3096 7.84544C50.9818 8.48827 50.4566 9.03614 49.7341 9.48904C50.6372 10.015 51.2795 10.614 51.6608 11.286C51.9752 11.8558 52.1325 12.5352 52.1325 13.3241C52.1325 14.6901 51.7076 15.7822 50.858 16.6003C49.9281 17.4988 48.6068 17.9481 46.8941 17.9481H36.2067V1.22722H45.7802ZM42.9905 7.84544H43.151C44.5091 7.84544 45.1882 7.30123 45.1882 6.2128C45.1882 5.13168 44.5927 4.59112 43.4019 4.59112H42.9905V7.84544ZM42.9905 14.2664H43.1912C44.6295 14.2664 45.3487 13.6894 45.3487 12.5352C45.3487 11.2787 44.7199 10.6505 43.4621 10.6505H42.9905V14.2664Z" fill="white"/>
<path d="M69.2122 8.80969C69.2122 11.907 68.5064 14.2263 67.0948 15.7676C66.3322 16.6003 65.4424 17.2286 64.4255 17.6522C63.5089 18.0321 62.5623 18.222 61.5855 18.222C60.582 18.222 59.6019 18.0175 58.6453 17.6084C57.6284 17.1701 56.752 16.5492 56.0161 15.7457C55.2534 14.9129 54.7115 13.8793 54.3904 12.6448C54.1161 11.5636 53.9789 10.1757 53.9789 8.48097V1.22722H60.7627V8.97405C60.7627 10.2451 61.0303 10.8806 61.5655 10.8806C61.9067 10.8806 62.1341 10.709 62.2479 10.3656C62.3683 10.0077 62.4285 9.31007 62.4285 8.27278V1.22722H69.2122V8.80969Z" fill="white"/>
<path d="M70.6774 1.22722H78.0733L80.3412 4.30623L82.4987 1.22722H89.8545L84.0542 9.44521L90.2258 17.9481H82.7998L80.3813 14.628L78.0331 17.9481H70.6774L76.6583 9.48904L70.6774 1.22722Z" fill="white"/>
<path d="M103.061 7.35236C101.977 5.72338 100.709 4.90888 99.2574 4.90888C98.4613 4.90888 98.0632 5.2376 98.0632 5.89504C98.0632 6.16532 98.2907 6.43925 98.7456 6.71684C98.9329 6.83372 99.1738 6.96155 99.4681 7.10035L101.325 7.92215C101.693 8.09016 102.017 8.24721 102.298 8.39331C103.014 8.78047 103.562 9.18224 103.944 9.59862C104.66 10.3802 105.018 11.4212 105.018 12.7215C105.018 16.3885 102.562 18.222 97.6518 18.222C96.3271 18.222 95.1129 18.1271 94.009 17.9371C92.8182 17.7326 91.6976 17.4075 90.6473 16.9619L92.3131 11.3737C93.3367 13.1561 94.6178 14.0473 96.1565 14.0473C96.9125 14.0473 97.2905 13.7332 97.2905 13.105C97.2905 12.6813 96.9761 12.2978 96.3472 11.9544C96.2201 11.8814 96.0696 11.8047 95.8956 11.7243L94.28 10.9902C93.8585 10.7784 93.4939 10.5629 93.1861 10.3437C92.8048 10.0661 92.4837 9.76663 92.2228 9.44521C91.5939 8.6782 91.2795 7.72126 91.2795 6.57439C91.2795 2.83429 93.728 0.964245 98.6252 0.964245C100.9 0.964245 102.94 1.33679 104.747 2.08189L103.061 7.35236Z" fill="white"/>
<path d="M106.814 17.9481V1.22722H113.598V7.35236H117.05V1.22722H123.833V17.9481H117.05V11.7353H113.598V17.9481H106.814Z" fill="white"/>
<path d="M129.353 0L143.041 3.86794L143.101 3.93368L139.498 19C130.694 16.5383 126.111 15.227 125.75 15.0663C127.931 5.69416 129.132 0.672049 129.353 0ZM133.447 7.68108L132.785 10.6615H132.845L135.404 11.3737C135.845 9.68627 136.066 8.71473 136.066 8.45905L133.447 7.68108Z" fill="white"/>
<path d="M153.919 1.22722C155.023 1.22722 155.996 1.40984 156.839 1.77509C157.582 2.0965 158.204 2.55671 158.705 3.15571C159.147 3.68166 159.482 4.29162 159.709 4.98558C159.903 5.59919 160 6.23106 160 6.8812C160 8.44444 159.502 9.77393 158.505 10.8697C157.515 11.9654 156.314 12.5133 154.902 12.5133C153.751 12.5133 152.587 12.0275 151.41 11.0559V17.9481H144.626V1.22722H153.919ZM151.41 8.48097C151.611 8.53941 151.795 8.56863 151.962 8.56863C153.099 8.56863 153.668 7.9331 153.668 6.66205C153.668 5.44944 153.156 4.84314 152.132 4.84314H151.41V8.48097Z" fill="white"/>
</svg>
