<svg width="100" height="11" viewBox="0 0 100 11" fill="none" xmlns="http://www.w3.org/2000/svg">
<path d="M6.25314 0.710496C7.38627 0.710496 8.26852 1.01288 8.8999 1.61765C9.45601 2.15052 9.73407 2.81449 9.73407 3.60957C9.73407 4.53153 9.3703 5.24625 8.64275 5.75375C9.67971 6.94637 10.2965 8.49212 10.493 10.391H6.10261C6.01062 9.10957 5.82037 8.18973 5.53186 7.63149C5.24335 7.0817 4.81268 6.80681 4.23984 6.80681V10.391H0V0.710496H6.25314ZM4.23984 4.56747H4.35273C5.11791 4.56747 5.5005 4.26509 5.5005 3.66032C5.5005 3.40657 5.43151 3.19512 5.29353 3.02595C5.12209 2.81027 4.85658 2.70242 4.49699 2.70242H4.23984V4.56747Z" fill="#23272A"/>
<path d="M13.1209 0L21.6759 2.23933L21.7135 2.27739L19.4619 11C13.9593 9.57478 11.0951 8.81565 10.8693 8.72261C12.2324 3.29662 12.9829 0.389081 13.1209 0ZM15.6799 4.44694L15.2659 6.17243H15.3036L16.9029 6.58477C17.1789 5.60784 17.3169 5.04537 17.3169 4.89735L15.6799 4.44694Z" fill="#23272A"/>
<path d="M28.6126 0.710496C29.3486 0.710496 29.9778 0.799308 30.5005 0.976932C30.9646 1.13341 31.3409 1.35544 31.6295 1.64302C31.8803 1.89254 32.0643 2.18435 32.1814 2.51845C32.2776 2.79758 32.3256 3.09573 32.3256 3.41292C32.3256 3.84429 32.2399 4.22068 32.0685 4.5421C31.8636 4.91426 31.5354 5.23145 31.0838 5.49366C31.6483 5.79815 32.0497 6.14494 32.288 6.53403C32.4845 6.8639 32.5828 7.25721 32.5828 7.71396C32.5828 8.50481 32.3173 9.13706 31.7863 9.61073C31.2051 10.1309 30.3792 10.391 29.3088 10.391H22.6292V0.710496H28.6126ZM26.869 4.5421H26.9694C27.8182 4.5421 28.2426 4.22703 28.2426 3.59689C28.2426 2.97097 27.8705 2.65802 27.1262 2.65802H26.869V4.5421ZM26.869 8.25952H26.9945C27.8935 8.25952 28.343 7.92541 28.343 7.25721C28.343 6.5298 27.9499 6.16609 27.1638 6.16609H26.869V8.25952Z" fill="#23272A"/>
<path d="M43.2577 5.10035C43.2577 6.8935 42.8165 8.23626 41.9343 9.1286C41.4576 9.61073 40.9015 9.97443 40.2659 10.2197C39.6931 10.4396 39.1014 10.5496 38.491 10.5496C37.8638 10.5496 37.2512 10.4312 36.6533 10.1943C36.0177 9.9406 35.47 9.58112 35.01 9.11592C34.5334 8.63379 34.1947 8.03537 33.994 7.32065C33.8225 6.69473 33.7368 5.8912 33.7368 4.91003V0.710496H37.9767V5.1955C37.9767 5.93137 38.1439 6.29931 38.4784 6.29931C38.6917 6.29931 38.8338 6.19992 38.9049 6.00115C38.9802 5.79393 39.0178 5.39004 39.0178 4.7895V0.710496H43.2577V5.10035Z" fill="#23272A"/>
<path d="M44.1734 0.710496H48.7958L50.2132 2.49308L51.5617 0.710496H56.1591L52.5339 5.46828L56.3911 10.391H51.7499L50.2383 8.46886L48.7707 10.391H44.1734L47.9114 5.49366L44.1734 0.710496Z" fill="#23272A"/>
<path d="M64.4129 4.25663C63.7356 3.31353 62.9432 2.84198 62.0359 2.84198C61.5383 2.84198 61.2895 3.0323 61.2895 3.41292C61.2895 3.5694 61.4317 3.72799 61.716 3.8887C61.8331 3.95636 61.9836 4.03037 62.1676 4.11073L63.3279 4.58651C63.5579 4.68378 63.7607 4.7747 63.9363 4.85928C64.3837 5.08343 64.7265 5.31603 64.9649 5.55709C65.4123 6.00961 65.636 6.61226 65.636 7.36505C65.636 9.48808 64.1014 10.5496 61.0324 10.5496C60.2045 10.5496 59.4456 10.4946 58.7556 10.3847C58.0114 10.2662 57.311 10.078 56.6545 9.82007L57.6957 6.58477C58.3354 7.61669 59.1361 8.13264 60.0978 8.13264C60.5703 8.13264 60.8066 7.95079 60.8066 7.58708C60.8066 7.34179 60.6101 7.11976 60.217 6.92099C60.1376 6.8787 60.0435 6.83429 59.9348 6.78777L58.925 6.36275C58.6616 6.2401 58.4337 6.11534 58.2413 5.98847C58.003 5.82776 57.8023 5.65436 57.6392 5.46828C57.2462 5.02422 57.0497 4.4702 57.0497 3.80623C57.0497 1.64091 58.58 0.558247 61.6407 0.558247C63.0624 0.558247 64.3377 0.773933 65.4666 1.20531L64.4129 4.25663Z" fill="#23272A"/>
<path d="M66.7587 10.391V0.710496H70.9985V4.25663H73.156V0.710496H77.3959V10.391H73.156V6.79412H70.9985V10.391H66.7587Z" fill="#23272A"/>
<path d="M80.8455 0L89.4004 2.23933L89.438 2.27739L87.1864 11C81.6838 9.57478 78.8196 8.81565 78.5938 8.72261C79.9569 3.29662 80.7075 0.389081 80.8455 0ZM83.4044 4.44694L82.9905 6.17243H83.0281L84.6274 6.58477C84.9034 5.60784 85.0414 5.04537 85.0414 4.89735L83.4044 4.44694Z" fill="#23272A"/>
<path d="M96.1992 0.710496C96.8891 0.710496 97.4975 0.816225 98.0243 1.02768C98.4885 1.21376 98.8773 1.4802 99.1909 1.82699C99.4669 2.13149 99.676 2.48462 99.8181 2.88639C99.9394 3.24164 100 3.60746 100 3.98385C100 4.88889 99.6885 5.65859 99.0655 6.29296C98.4467 6.92734 97.6961 7.24452 96.8139 7.24452C96.0947 7.24452 95.3671 6.96328 94.6312 6.40081V10.391H90.3914V0.710496H96.1992ZM94.6312 4.91003C94.7566 4.94387 94.8716 4.96078 94.9762 4.96078C95.687 4.96078 96.0424 4.59285 96.0424 3.85698C96.0424 3.15494 95.7225 2.80392 95.0828 2.80392H94.6312V4.91003Z" fill="#23272A"/>
</svg>
