<svg width="211" height="211" viewBox="0 0 211 211" fill="none" xmlns="http://www.w3.org/2000/svg">
<path d="M125.742 0C148.528 0 166.269 6.59087 178.965 19.7726C190.148 31.3873 195.739 45.8595 195.739 63.1894C195.739 83.2846 188.424 98.863 173.794 109.925C194.646 135.919 207.048 169.611 211 211H122.715C120.866 183.069 117.04 163.02 111.238 150.853C105.437 138.869 96.7766 132.877 85.2576 132.877V211H0V0H125.742ZM85.2576 84.0682H87.5278C102.915 84.0682 110.608 77.4773 110.608 64.2955C110.608 58.7647 109.221 54.1557 106.446 50.4685C102.999 45.7674 97.6595 43.4168 90.4286 43.4168H85.2576V84.0682Z" fill="white"/>
</svg>
